<svg xmlns="http://www.w3.org/2000/svg" viewBox="0 0 64 64" role="img" aria-labelledby="title">
  <title>Shotwright</title>
  <defs>
    <linearGradient id="swGradient" x1="10" x2="54" y1="8" y2="56" gradientUnits="userSpaceOnUse">
      <stop offset="0" stop-color="#0e639c" />
      <stop offset="1" stop-color="#1177bb" />
    </linearGradient>
  </defs>
  <rect x="4" y="4" width="56" height="56" rx="14" fill="url(#swGradient)" />
  <g transform="translate(-6.5 0.5)">
    <path d="M22.9 40.6c1.4 1.1 3.4 1.8 5.4 1.8 2.6 0 4.2-1 4.2-2.6 0-1.4-1-2.2-3.7-2.9l-1.9-.5c-3.8-1-6-3.1-6-6.3 0-4 3.4-6.7 8.4-6.7 2.4 0 4.7.6 6.5 1.7l-1.5 3.5c-1.4-.8-3.1-1.3-4.8-1.3-2.4 0-3.8 1-3.8 2.5 0 1.3 1.1 2.1 3.7 2.8l1.9.5c4 .9 6.1 3 6.1 6.4 0 4.2-3.5 6.9-8.9 6.9-2.8 0-5.5-.8-7.4-2.1l1.8-3.7Z" fill="#fff"/>
    <path d="M39.5 24.5 42.9 44.3 47.7 29.5 52.5 44.3 55.9 24.5" fill="none" stroke="#fff" stroke-linecap="round" stroke-linejoin="round" stroke-width="4.8"/>
  </g>
</svg>