<svg xmlns="http://www.w3.org/2000/svg" width="1200" height="900" viewBox="0 0 1200 900" fill="none">
  <defs>
    <linearGradient id="bg" x1="90" y1="50" x2="1110" y2="850" gradientUnits="userSpaceOnUse">
      <stop stop-color="#F8F2E4" />
      <stop offset="1" stop-color="#E6F1EF" />
    </linearGradient>
    <linearGradient id="leftCard" x1="70" y1="150" x2="560" y2="800" gradientUnits="userSpaceOnUse">
      <stop stop-color="#FFF7D7" />
      <stop offset="1" stop-color="#FFFDF5" />
    </linearGradient>
    <linearGradient id="rightCard" x1="640" y1="150" x2="1130" y2="800" gradientUnits="userSpaceOnUse">
      <stop stop-color="#E6F8F3" />
      <stop offset="1" stop-color="#F8FFFD" />
    </linearGradient>
  </defs>

  <rect width="1200" height="900" rx="42" fill="url(#bg)" />

  <text x="600" y="78" text-anchor="middle" fill="#183F39" font-family="Microsoft YaHei, Segoe UI, Arial, sans-serif" font-size="38" font-weight="700">两种拿到 AE 安装载荷的方式</text>
  <text x="600" y="113" text-anchor="middle" fill="#4D6B64" font-family="Microsoft YaHei, Segoe UI, Arial, sans-serif" font-size="20">先读取 setup-versions.yml 的当前版本，再根据环境选择最快的交付路径。</text>

  <g>
    <rect x="62" y="152" width="500" height="610" rx="34" fill="url(#leftCard)" stroke="#E1B343" stroke-width="4" />
    <rect x="86" y="176" width="178" height="42" rx="21" fill="#17443B" />
    <text x="175" y="203" text-anchor="middle" fill="#FFF8E5" font-family="Microsoft YaHei, Segoe UI, Arial, sans-serif" font-size="18" font-weight="700">优先路径</text>

    <text x="98" y="250" fill="#183F39" font-family="Microsoft YaHei, Segoe UI, Arial, sans-serif" font-size="36" font-weight="700">从 GHCR 直接拉取</text>
    <text x="98" y="283" fill="#506963" font-family="Microsoft YaHei, Segoe UI, Arial, sans-serif" font-size="19">适合 setup 镜像已经在 GHCR 中可用。</text>

    <ellipse cx="312" cy="380" rx="126" ry="82" fill="#FFFFFF" stroke="#9BC7BE" stroke-width="4" />
    <circle cx="252" cy="376" r="38" fill="#FFFFFF" />
    <circle cx="308" cy="354" r="52" fill="#FFFFFF" />
    <circle cx="364" cy="378" r="36" fill="#FFFFFF" />
    <text x="312" y="388" text-anchor="middle" fill="#183F39" font-family="Segoe UI, Arial, sans-serif" font-size="40" font-weight="700">GHCR</text>

    <path d="M312 466 V506" stroke="#E08E57" stroke-width="8" stroke-linecap="round" stroke-dasharray="10 12" />
    <path d="M284 494 L312 524 L340 494" stroke="#E08E57" stroke-width="8" stroke-linecap="round" stroke-linejoin="round" fill="none" />

    <rect x="214" y="524" width="196" height="74" rx="22" fill="#FFAB69" stroke="#C86E39" stroke-width="4" />
    <rect x="246" y="545" width="132" height="32" rx="10" fill="#FFF4E8" />
    <text x="312" y="569" text-anchor="middle" fill="#183F39" font-family="Microsoft YaHei, Segoe UI, Arial, sans-serif" font-size="22" font-weight="700">安装载荷镜像</text>

    <path d="M312 598 V614" stroke="#E08E57" stroke-width="7" stroke-linecap="round" stroke-dasharray="8 10" />
    <path d="M294 607 L312 625 L330 607" stroke="#E08E57" stroke-width="7" stroke-linecap="round" stroke-linejoin="round" fill="none" />

    <rect x="120" y="594" width="384" height="54" rx="20" fill="#F6FBFC" stroke="#8DB7AE" stroke-width="4" />
    <rect x="176" y="604" width="272" height="34" rx="11" fill="#FFE5A8" stroke="#D2A04C" stroke-width="3" />
    <text x="312" y="627" text-anchor="middle" fill="#183F39" font-family="Microsoft YaHei, Segoe UI, Arial, sans-serif" font-size="18" font-weight="700">宿主机 C:\payload</text>

    <path d="M96 644 H528" stroke="#D6D5C7" stroke-width="2" />

    <text x="98" y="670" fill="#183F39" font-family="Microsoft YaHei, Segoe UI, Arial, sans-serif" font-size="20" font-weight="700">为什么优先选这条</text>
    <text x="98" y="696" fill="#486761" font-family="Microsoft YaHei, Segoe UI, Arial, sans-serif" font-size="16">1. 最适合 CI 和验证渲染的快速启动</text>
    <text x="98" y="718" fill="#486761" font-family="Microsoft YaHei, Segoe UI, Arial, sans-serif" font-size="16">2. 不用在 setup 阶段再走一次 Adobe 目录下载</text>
  </g>

  <g>
    <rect x="638" y="152" width="500" height="610" rx="34" fill="url(#rightCard)" stroke="#55A48D" stroke-width="4" />
    <rect x="662" y="176" width="170" height="42" rx="21" fill="#116B51" />
    <text x="747" y="203" text-anchor="middle" fill="#F1FFF9" font-family="Microsoft YaHei, Segoe UI, Arial, sans-serif" font-size="18" font-weight="700">兜底路径</text>

    <text x="674" y="250" fill="#183F39" font-family="Microsoft YaHei, Segoe UI, Arial, sans-serif" font-size="36" font-weight="700">在本地脚本下载</text>
    <text x="674" y="283" fill="#506963" font-family="Microsoft YaHei, Segoe UI, Arial, sans-serif" font-size="19">适合 GHCR 还没就绪，或你要自己构建缓存。</text>

    <rect x="726" y="326" width="324" height="178" rx="28" fill="#173F38" />
    <rect x="750" y="350" width="276" height="130" rx="18" fill="#D7EFE9" />
    <rect x="866" y="504" width="44" height="22" rx="8" fill="#173F38" />
    <text x="888" y="411" text-anchor="middle" fill="#183F39" font-family="Consolas, monospace" font-size="23" font-weight="700">download_after_</text>
    <text x="888" y="445" text-anchor="middle" fill="#183F39" font-family="Consolas, monospace" font-size="23" font-weight="700">effects_payload.py</text>

    <path d="M888 526 V548" stroke="#55A48D" stroke-width="8" stroke-linecap="round" stroke-dasharray="10 12" />
    <path d="M872 541 L888 557 L904 541" stroke="#55A48D" stroke-width="7" stroke-linecap="round" stroke-linejoin="round" fill="none" />

    <rect x="752" y="560" width="130" height="76" rx="18" fill="#FFD490" stroke="#D09744" stroke-width="4" />
    <rect x="898" y="560" width="156" height="76" rx="18" fill="#BEE6D9" stroke="#55A48D" stroke-width="4" />
    <text x="817" y="591" text-anchor="middle" fill="#183F39" font-family="Segoe UI, Arial, sans-serif" font-size="20" font-weight="700">AEFT_*</text>
    <text x="817" y="616" text-anchor="middle" fill="#183F39" font-family="Microsoft YaHei, Segoe UI, Arial, sans-serif" font-size="18">安装包</text>
    <text x="976" y="589" text-anchor="middle" fill="#183F39" font-family="Segoe UI, Arial, sans-serif" font-size="19" font-weight="700">CreativeCloud</text>
    <text x="976" y="614" text-anchor="middle" fill="#183F39" font-family="Microsoft YaHei, Segoe UI, Arial, sans-serif" font-size="17">Helper + 补丁</text>

    <path d="M672 644 H1104" stroke="#D6D5C7" stroke-width="2" />

    <text x="674" y="670" fill="#183F39" font-family="Microsoft YaHei, Segoe UI, Arial, sans-serif" font-size="20" font-weight="700">为什么保留这条</text>
    <text x="674" y="696" fill="#486761" font-family="Microsoft YaHei, Segoe UI, Arial, sans-serif" font-size="16">1. 在 setup 镜像尚未发布时仍然可用</text>
    <text x="674" y="718" fill="#486761" font-family="Microsoft YaHei, Segoe UI, Arial, sans-serif" font-size="16">2. 你可以完整检查和控制本地缓存内容</text>
  </g>
</svg>
